<svg xmlns="http://www.w3.org/2000/svg" width="16" height="16" viewBox="0 0 16 16">
  <g id="Group_8950" data-name="Group 8950" transform="translate(-11968 19764)">
    <rect id="Rectangle_2854" data-name="Rectangle 2854" width="16" height="16" transform="translate(11968 -19764)" fill="#fff"/>
    <g id="saj_fav_logo_" data-name="saj fav logo " transform="translate(11972 -19763)">
      <path id="Path_2041" data-name="Path 2041" d="M2.441.134c.023-.028.054-.013.08-.013.606,0,1.212,0,1.818,0,.121,0,.153.037.153.156,0,3.011.024,6.022-.014,9.032a5.988,5.988,0,0,1-1.226,3.641,3.879,3.879,0,0,1-2.645,1.51A1.62,1.62,0,0,1,0,14.468c.087-.044.172-.09.26-.13a6.285,6.285,0,0,0,1.521-.955A5.278,5.278,0,0,0,3.661,9.967a10.857,10.857,0,0,0,.022-1.224c.006-.4,0-.808,0-1.212q-.008-2.206-.016-4.414c0-.432.006-.866.022-1.3A1.352,1.352,0,0,0,3.323.861a3.092,3.092,0,0,0-.775-.64C2.515.2,2.482.181,2.451.16,2.443.156,2.443.143,2.441.134Z" transform="translate(0 -0.085)" fill="#919396"/>
      <path id="Path_2042" data-name="Path 2042" d="M19.318,10.569a2,2,0,0,0-1.726.79,4.544,4.544,0,0,0,.256-1.037,6.654,6.654,0,0,0,.08-.918q0-4.616,0-9.233c0-.142.038-.173.175-.171.6.008,1.193,0,1.789,0,.02.052-.028.056-.052.071a2.394,2.394,0,0,0-1.1,2.075c-.012,2.159-.007,4.318,0,6.478A3.473,3.473,0,0,0,19.318,10.569Z" transform="translate(-12.68)" fill="#ea2028"/>
    </g>
  </g>
</svg>
