<svg xmlns="http://www.w3.org/2000/svg" width="25.831" height="51.601" viewBox="0 0 25.831 51.601">
  <g id="saj_fav_logo_" data-name="saj fav logo " transform="translate(3537.991 2711.022)">
    <path id="Path_2041" data-name="Path 2041" d="M759.89-432.632c.081-.1.192-.046.285-.046,2.171,0,4.342.008,6.512-.012.435,0,.548.133.547.558-.011,10.782.085,21.566-.051,32.346a21.44,21.44,0,0,1-4.391,13.038,13.891,13.891,0,0,1-9.472,5.408,5.787,5.787,0,0,1-2.17.041c.31-.156.616-.322.932-.467a22.513,22.513,0,0,0,5.448-3.42,18.9,18.9,0,0,0,6.729-12.233,38.988,38.988,0,0,0,.08-4.385c.02-1.446,0-2.893-.007-4.34q-.03-7.9-.057-15.807c0-1.548.02-3.1.077-4.645a4.838,4.838,0,0,0-1.3-3.433,11.073,11.073,0,0,0-2.776-2.293c-.118-.07-.236-.142-.35-.219C759.9-432.554,759.9-432.6,759.89-432.632Z" transform="translate(-4289.141 -2278.212)" fill="#919396"/>
    <path id="Path_2042" data-name="Path 2042" d="M798.093-395.114c-2.7-.352-4.483,1.123-6.182,2.829a16.229,16.229,0,0,0,.915-3.714,23.851,23.851,0,0,0,.285-3.288q0-16.532-.013-33.065c0-.51.137-.62.627-.613,2.135.029,4.272.012,6.407.012.07.188-.1.2-.186.255a8.573,8.573,0,0,0-3.944,7.43c-.043,7.732-.024,15.465-.007,23.2A12.44,12.44,0,0,0,798.093-395.114Z" transform="translate(-4312.31 -2278.057)" fill="#ea2028"/>
  </g>
</svg>
