<svg xmlns="http://www.w3.org/2000/svg" width="425.209" height="367.274" viewBox="0 0 425.209 367.274">
  <g id="Group_8951" data-name="Group 8951" transform="translate(3259 3135.999)">
    <path id="Path_2041" data-name="Path 2041" d="M813.355-432.261c.574-.71,1.367-.329,2.028-.329,15.452-.028,30.9.055,46.353-.086,3.1-.028,3.9.949,3.9,3.969-.077,76.745.6,153.5-.366,230.224-.43,33.767-10.3,65.492-31.251,92.8C817-83.51,794.2-71.035,766.6-67.189c-5.032.7-10.061,1.533-15.446.295,2.209-1.109,4.384-2.295,6.632-3.321A160.234,160.234,0,0,0,796.56-94.557c26.689-23.086,43.417-51.735,47.892-87.069,1.315-10.38.424-20.807.568-31.211.142-10.294-.015-20.595-.052-30.889q-.212-56.254-.4-112.506c-.019-11.019.144-22.048.547-33.061.347-9.542-3.247-17.437-9.281-24.432a78.82,78.82,0,0,0-19.756-16.322c-.842-.5-1.68-1.011-2.491-1.557C813.438-431.705,813.434-432.016,813.355-432.261Z" transform="translate(-4010.15 -2702.467)" fill="#fff"/>
    <path id="Path_2042" data-name="Path 2042" d="M835.911-163.553c-19.2-2.5-31.906,8-44,20.137a115.492,115.492,0,0,0,6.512-26.435,169.692,169.692,0,0,0,2.031-23.405q0-117.67-.089-235.342c-.006-3.628.974-4.414,4.464-4.365,15.2.2,30.4.086,45.6.086.495,1.336-.746,1.419-1.327,1.813-18.73,12.663-27.946,30.643-28.069,52.881-.307,55.035-.172,110.073-.052,165.11C821.015-198.785,823.881-182.43,835.911-163.553Z" transform="translate(-3925.693 -2703.034)" fill="#ea2028"/>
    <path id="Path_2043" data-name="Path 2043" d="M882.9-410.153c-.43-1.69-1.2-2.3-3.01-2.243-4.3.154-8.6.184-12.872,0-1.9-.092-2.488.707-2.888,2.335-5.714,22.364-11.428,44.728-17.3,67.584,4.055,0,7.772-.307,11.4.092,3.779.43,4.977-1.2,5.653-4.577,1.29-6.574,1.474-6.574,8.264-6.543,3.041.031,6.85-.922,8.939.522,1.813,1.29,1.659,5.345,2.365,8.172a4.445,4.445,0,0,1,.215,1.075c.031.922.522,1.259,1.382,1.259h15.022C894.231-365.394,888.548-387.758,882.9-410.153Zm-14.531,43.284c1.536-8.817,3.072-17.48,4.639-26.173a2.649,2.649,0,0,1,.491-.031c1.567,8.663,3.134,17.357,4.731,26.2Z" transform="translate(-3811.901 -2660.427)" fill="#fff"/>
    <path id="Path_2044" data-name="Path 2044" d="M852.851-394.969c-3.462-1.241-6.27-2.737-9.425-3.281a11.956,11.956,0,0,0-4.728-.043c-4.181.94-5.431,4.193-2.986,7.711a23.281,23.281,0,0,0,6.267,5.591,52.224,52.224,0,0,1,10.165,8.93c10.2,11.861,5.207,28.437-9.892,32.419a30.954,30.954,0,0,1-19.449-1.094c-1.327-.513-2.412-.872-2.372-2.676.1-4.626.037-9.259.037-14.229,2.62,1.063,4.934,2.015,7.262,2.937a15.117,15.117,0,0,0,6.817,1.146c2.35-.19,4.338-1.17,5.219-3.437a4.965,4.965,0,0,0-1.659-5.935c-1.874-1.57-3.785-3.1-5.714-4.6-3.781-2.931-7.529-5.9-10.435-9.747-4.943-6.537-5.775-13.781-2.39-21.08,3.395-7.321,9.781-10.614,17.735-10.964,1.223-.052,2.451-.028,3.674,0,10.337.2,11.873,1.711,11.873,11.7Z" transform="translate(-3872.623 -2662.388)" fill="#fff"/>
    <path id="Path_2045" data-name="Path 2045" d="M912.719-386.288c-.452,7.674.909,17.022-.845,26.25-3.207,16.871-16.048,22.1-30.238,19.031-2.018-.436-3.315-1.219-3.044-3.653.322-2.906-1.029-6.344.516-8.645,1.813-2.7,5.447-.719,8.261-1,5.511-.559,8.967-3.969,9.707-10.562a97.846,97.846,0,0,0,.415-10.623c.046-11.757.08-23.516-.034-35.276-.025-2.43.415-3.548,3.149-3.336a71.286,71.286,0,0,0,9.551.012c2.138-.12,2.636.648,2.608,2.676C912.654-403.577,912.719-395.738,912.719-386.288Z" transform="translate(-3746.592 -2664.001)" fill="#fff"/>
    <path id="Path_2046" data-name="Path 2046" d="M873.339-375.121a21.285,21.285,0,0,0-9.176-2.123c-5.189.043-9.115,2.255-11.084,6.98-2.089,5.01-1.951,10.168,1.674,14.555,3.364,4.07,8.061,4.384,12.8,3.324,4.623-1.032,2.264-4.921,2.58-7.576.329-2.771-2.092-1.542-3.41-1.785-.832-.151-1.723.031-2.565-.1-1.2-.178-.958-1.2-1-2.018s.154-1.45,1.152-1.45c.366,0,.734-.006,1.1-.025,8.893-.47,8.893-.47,8.893,8.454,0,6.767.01,6.823-6.832,8.07-6.568,1.192-12.632.169-16.795-5.523-3.941-5.388-4.092-11.5-1.321-17.415,2.94-6.27,8.331-9.007,15.163-9.029a21.3,21.3,0,0,1,5.465.488C873.68-379.336,873.692-379.388,873.339-375.121Z" transform="translate(-3810.572 -2594.9)" fill="#ea2129"/>
    <path id="Path_2047" data-name="Path 2047" d="M892.56-351.419c-3.686-9.185-7.4-18.371-11.059-27.556a2.135,2.135,0,0,0-2.458-1.6c-1.229.061-2.4-.123-3.01,1.413-3.84,9.8-7.741,19.538-11.612,29.307,3.133,1.229,4.669.154,5.591-2.765.584-1.874.492-4.854,2.734-5.13a37,37,0,0,1,12.073.092c2.3.461,2.12,4.055,3.226,6.175a9.062,9.062,0,0,0,.615,1.352c1.075,1.229,2.519.8,3.748.522C893.389-349.852,892.805-350.8,892.56-351.419ZM875.971-361.4c-2.488.123-2.55-.829-1.751-2.8,1.505-3.563,2.8-7.219,4.424-11.551,1.936,4.977,3.656,9.37,5.56,14.315C881.07-361.433,878.521-361.526,875.971-361.4Z" transform="translate(-3775.455 -2594.499)" fill="#ea2129"/>
    <path id="Path_2048" data-name="Path 2048" d="M832.079-365.213c0-4.282.083-8.571-.037-12.853-.052-1.92.578-2.577,2.5-2.522,4.037.117,8.079.043,12.122.034,1.18-.006,2.16.034,2.138,1.693-.021,1.579-.9,1.791-2.126,1.788-2.814-.009-5.634.052-8.448-.012-1.539-.037-2.319.51-2.169,2.114a2.113,2.113,0,0,1,0,.369c-.455,7.529-.455,7.526,6.964,7.529.98,0,1.963.052,2.94-.009,1.511-.092,1.846.734,1.868,2.037.025,1.41-.792,1.561-1.889,1.551-2.571-.025-5.146.052-7.714-.028-1.5-.046-2.368.359-2.169,2.028a2.1,2.1,0,0,1,0,.366c-.452,8.245-.452,8.245,7.781,8.245,1.349,0,2.694.025,4.043.018,1.281-.006,1.64.685,1.644,1.871.006,1.094-.43,1.579-1.49,1.579-4.774,0-9.551-.015-14.328.006-1.982.009-1.616-1.413-1.622-2.581C832.07-356.4,832.079-360.805,832.079-365.213Z" transform="translate(-3842.548 -2594.516)" fill="#ea232b"/>
    <path id="Path_2049" data-name="Path 2049" d="M841.932-378.945c-5.333.012-8.995-3.419-9-8.43,0-5.041,3.637-8.491,8.955-8.488,5.238,0,9.219,3.634,9.2,8.393C851.062-382.757,846.982-378.957,841.932-378.945Z" transform="translate(-3840.694 -2626.155)" fill="#fff"/>
    <path id="Path_2050" data-name="Path 2050" d="M883.312-385.932a8.536,8.536,0,0,1-8.866,8.685,8.559,8.559,0,0,1-8.177-9.01,8.569,8.569,0,0,1,8.921-8.645C879.994-394.771,883.391-391.02,883.312-385.932Z" transform="translate(-3771.629 -2624.175)" fill="#fff"/>
    <path id="Path_2051" data-name="Path 2051" d="M893.441-344.078c-.829-2.027-1.413-4.239-2.673-5.99-1.106-1.475-.553-1.812.553-2.611,2.365-1.72,2.4-4.239,1.659-6.666a5.086,5.086,0,0,0-5.069-3.563c-2.826-.123-5.652.092-8.448-.154-2.642-.215-3.134.983-3.01,3.226.154,2.427.031,4.884.031,7.342,0,2.089-.123,4.178.061,6.236.154,1.505-1.137,4.055,1.475,4.178,2.765.092,1.352-2.55,1.628-3.994a18.819,18.819,0,0,0,.092-2.949,1.511,1.511,0,0,1,1.106-1.628,6.584,6.584,0,0,1,8.448,3.717c.522,1.382.952,2.8,1.536,4.147.4.952,1.352,1.014,2.212.768C894.424-342.389,893.749-343.341,893.441-344.078Zm-6.574-9.523a23.118,23.118,0,0,1-2.918,0c-4.424.061-4.516-.154-4.3-4.332.092-1.69.615-2.458,2.365-2.365,1.567.061,3.164,0,4.731.031,2.12.031,3.471.922,3.564,3.226C890.4-354.677,888.833-353.909,886.867-353.6Z" transform="translate(-3750.716 -2558.248)" fill="#fff"/>
    <path id="Path_2052" data-name="Path 2052" d="M883.326-364.953c0-4.279.025-8.555-.012-12.832-.015-1.564-.092-2.842,2.187-2.814,2.406.031,2.021,1.539,2.024,2.964.006,7.087.163,14.18-.073,21.258-.1,3.023.961,3.791,3.723,3.542,2.3-.209,4.642-.025,6.961-.049,1.321-.015,2.433.043,2.43,1.859,0,1.674-1.048,1.643-2.2,1.64-4.279-.006-8.559-.071-12.835.028-1.831.04-2.264-.737-2.233-2.4C883.378-356.155,883.326-360.554,883.326-364.953Z" transform="translate(-3736.343 -2594.531)" fill="#eb262d"/>
    <path id="Path_2053" data-name="Path 2053" d="M817.434-365.142c0-4.163-.025-8.328.015-12.491.012-1.33-.615-2.977,1.923-2.968,2.326.006,2.172,1.336,2.169,2.863-.015,7.105.144,14.214-.08,21.31-.092,3,.922,3.849,3.742,3.6,2.43-.218,4.9,0,7.345-.055,1.386-.028,1.969.482,1.963,1.926-.006,1.4-.747,1.579-1.862,1.573-4.411-.022-8.823-.074-13.231.028-1.708.037-2.031-.7-2.009-2.19C817.477-356.076,817.434-360.607,817.434-365.142Z" transform="translate(-3872.902 -2594.532)" fill="#eb252c"/>
    <path id="Path_2054" data-name="Path 2054" d="M876.98-363.188c-6.021.154-10.2,4.885-9.953,11.3.215,6.236,4.577,10.568,10.476,10.414,5.745-.123,9.861-4.823,9.738-11.09C887.118-358.8,882.756-363.311,876.98-363.188Zm-.123,19.016c-4.27-.123-6.6-3.164-6.513-8.448.092-4.915,2.949-8.11,7.127-7.957,4.024.184,6.6,3.564,6.543,8.54C883.923-347,881.189-344.019,876.857-344.173Z" transform="translate(-3770.075 -2558.461)" fill="#fff"/>
    <path id="Path_2055" data-name="Path 2055" d="M834.34-363.2c-5.775-.184-10.168,4.362-10.23,10.6-.062,6.7,3.9,11.151,9.953,11.151,5.99.031,9.984-4.239,10.015-10.691C844.109-358.558,840.208-363.012,834.34-363.2Zm-.277,19.077c-4.178-.031-7.035-3.41-6.973-8.233.031-4.761,2.98-8.171,7.066-8.2,4.147,0,6.912,3.318,6.881,8.294S838.3-344.119,834.064-344.119Z" transform="translate(-3858.978 -2558.484)" fill="#fff"/>
    <path id="Path_2056" data-name="Path 2056" d="M824.613-341.428c-3.524-.233-6.51-1.121-7.95-4.51-.326-.762-1.232-1.935-.019-2.593,1.1-.6,2.031-.049,2.6,1.192,1.551,3.388,4.58,3.262,7.554,2.86a3.107,3.107,0,0,0,2.977-2.777c.187-1.8-.989-2.682-2.473-3.164-2.2-.713-4.457-1.256-6.657-1.972-2.436-.79-4.064-2.4-3.923-5.09.147-2.75,1.843-4.427,4.421-5.225,4-1.238,8.623.012,10.245,2.8.547.934,1.312,2.15.11,2.9-1,.621-2.021.1-2.6-1.17a4.221,4.221,0,0,0-3.935-2.258c-2.163-.126-4.556.1-5.1,2.534-.617,2.771,2,2.817,3.809,3.339,1.407.406,2.829.753,4.227,1.192,2.921.916,5.127,2.534,4.835,5.969s-2.636,5.05-5.745,5.757A16.535,16.535,0,0,1,824.613-341.428Z" transform="translate(-3875.716 -2558.45)" fill="#fff"/>
    <path id="Path_2057" data-name="Path 2057" d="M891.493-341.455c-2.758-.166-5.861-1.026-7.339-4.617-.347-.845-.934-1.981.4-2.495.989-.384,1.766-.043,2.279,1.14,1.472,3.395,4.488,3.382,7.5,2.989a3.068,3.068,0,0,0,2.931-2.817c.184-1.785-.823-2.7-2.408-3.167-2.224-.651-4.47-1.25-6.666-1.978-2.282-.759-3.745-2.2-3.754-4.82-.009-2.722,1.493-4.328,3.815-5.272,4.033-1.64,9.234-.289,10.813,2.814.393.774,1.348,1.84.289,2.593-.983.7-2.062.375-2.71-.875-1.4-2.676-3.852-2.777-6.353-2.307-1.453.273-2.86.925-2.848,2.826.009,1.711,1.272,2.252,2.593,2.642,1.284.384,2.615.618,3.917.952,4.715,1.21,6.85,3.419,6.47,6.66C900-343.695,896.712-341.394,891.493-341.455Z" transform="translate(-3735.463 -2558.469)" fill="#fff"/>
    <path id="Path_2058" data-name="Path 2058" d="M849.463-352.211c-.025,2.537.51,4.921,2.464,6.666a6.1,6.1,0,0,0,9.3-1.8c.716-1.25,1.484-1.711,2.55-1.167,1.133.581.541,1.73.2,2.605-1.518,3.889-7.557,5.668-12.107,3.594-4.749-2.16-6.918-8.863-4.758-14.69,1.815-4.9,6.632-7.225,11.913-5.739A7.653,7.653,0,0,1,864-358.7c.378.75.777,1.742-.252,2.236-.728.35-1.785.464-2.227-.553-1.613-3.7-4.51-4.282-7.864-3.014C850.13-358.7,849.454-355.575,849.463-352.211Z" transform="translate(-3813.044 -2558.446)" fill="#fff"/>
    <path id="Path_2059" data-name="Path 2059" d="M866.02-350.96a30.985,30.985,0,0,1,.021-3.662c.455-3.754.022-6.589-4.924-5.616-1.143.227-1.859-.319-1.785-1.634.074-1.3,1.017-1.173,1.85-1.177q6.414-.023,12.831,0c.836,0,1.825-.114,1.883,1.149s-.7,1.561-1.84,1.717c-5.078.7-5.075.737-5.075,5.775,0,2.811.138,5.631-.058,8.426-.1,1.336,1.17,3.788-1.3,3.806-2.719.021-1.364-2.565-1.558-4.021A36.157,36.157,0,0,1,866.02-350.96Z" transform="translate(-3786.007 -2558.192)" fill="#fff"/>
    <path id="Path_2060" data-name="Path 2060" d="M833.489-352.764c0-2.571-.028-5.143.012-7.714.019-1.14-.4-2.651,1.613-2.568,1.776.074,1.321,1.462,1.33,2.451.046,4.163.154,8.331-.028,12.485-.111,2.5.568,3.637,3.238,3.336a41.5,41.5,0,0,1,5.136-.021c.857.012,1.779-.043,1.828,1.226.043,1.084-.485,1.573-1.53,1.57-3.305-.006-6.611.006-9.917-.034-1.5-.018-1.7-1.069-1.687-2.286C833.51-347.133,833.492-349.95,833.489-352.764Z" transform="translate(-3839.568 -2558.167)" fill="#fff"/>
    <path id="Path_2061" data-name="Path 2061" d="M858.611-352.417c0,2.82-.012,5.637.006,8.457.006,1.149-.363,1.865-1.671,1.859-1.324,0-1.641-.756-1.637-1.889q.018-8.64.006-17.283c0-1.121.4-1.951,1.662-1.945s1.634.866,1.634,1.975Z" transform="translate(-3794.333 -2558.517)" fill="#fff"/>
    <path id="Path_2062" data-name="Path 2062" d="M843.577-352.336c0,2.814-.012,5.628.006,8.442.006,1.115-.237,1.929-1.613,1.859-1.183-.062-1.333-.829-1.33-1.76q0-8.81,0-17.618c0-.968.243-1.607,1.416-1.64,1.462-.043,1.521.866,1.521,1.911Q843.568-356.738,843.577-352.336Z" transform="translate(-3824.727 -2558.18)" fill="#fff"/>
  </g>
</svg>
