<svg xmlns="http://www.w3.org/2000/svg" width="138.415" height="119.556" viewBox="0 0 138.415 119.556">
  <g id="Group_8949" data-name="Group 8949" transform="translate(-751.15 432.966)">
    <path id="Path_2041" data-name="Path 2041" d="M771.4-432.552c.187-.231.445-.107.66-.107,5.03-.009,10.06.018,15.089-.028,1.008-.009,1.269.309,1.268,1.292-.025,24.982.2,49.966-.119,74.943a49.675,49.675,0,0,1-10.173,30.208,32.185,32.185,0,0,1-21.946,12.531,13.41,13.41,0,0,1-5.028.1c.719-.361,1.427-.747,2.159-1.081a52.161,52.161,0,0,0,12.623-7.924c8.688-7.515,14.133-16.841,15.59-28.343.428-3.379.138-6.773.185-10.16.046-3.351,0-6.7-.017-10.055q-.069-18.312-.131-36.623c-.006-3.587.047-7.177.178-10.762a11.209,11.209,0,0,0-3.021-7.953,25.657,25.657,0,0,0-6.431-5.313c-.274-.162-.547-.329-.811-.507C771.426-432.371,771.425-432.472,771.4-432.552Z" fill="#919396"/>
    <g id="Group_8948" data-name="Group 8948">
      <path id="Path_2042" data-name="Path 2042" d="M806.234-345.266c-6.249-.815-10.386,2.6-14.323,6.555a37.6,37.6,0,0,0,2.12-8.605,55.239,55.239,0,0,0,.661-7.619q0-38.3-.029-76.609c0-1.181.317-1.437,1.453-1.421,4.947.066,9.9.028,14.845.028.161.435-.243.462-.432.59a19.864,19.864,0,0,0-9.137,17.214c-.1,17.915-.056,35.831-.017,53.747A28.824,28.824,0,0,0,806.234-345.266Z" fill="#ea2028"/>
      <path id="Path_2043" data-name="Path 2043" d="M858.57-411.67a.822.822,0,0,0-.98-.73c-1.4.05-2.8.06-4.19,0-.62-.03-.81.23-.94.76-1.86,7.28-3.72,14.56-5.63,22a34.986,34.986,0,0,1,3.71.03c1.23.14,1.62-.39,1.84-1.49.42-2.14.48-2.14,2.69-2.13.99.01,2.23-.3,2.91.17.59.42.54,1.74.77,2.66a1.447,1.447,0,0,1,.07.35c.01.3.17.41.45.41h4.89C862.26-397.1,860.41-404.38,858.57-411.67Zm-4.73,14.09c.5-2.87,1-5.69,1.51-8.52a.863.863,0,0,1,.16-.01c.51,2.82,1.02,5.65,1.54,8.53Z"/>
      <path id="Path_2044" data-name="Path 2044" d="M829.024-407.366a19.388,19.388,0,0,0-3.068-1.068,3.892,3.892,0,0,0-1.539-.014,1.477,1.477,0,0,0-.972,2.51,7.578,7.578,0,0,0,2.04,1.82,17,17,0,0,1,3.309,2.907,6.322,6.322,0,0,1-3.22,10.553,10.076,10.076,0,0,1-6.331-.356c-.432-.167-.785-.284-.772-.871.034-1.506.012-3.014.012-4.632.853.346,1.606.656,2.364.956a4.922,4.922,0,0,0,2.219.373,1.822,1.822,0,0,0,1.7-1.119,1.616,1.616,0,0,0-.54-1.932c-.61-.511-1.232-1.009-1.86-1.5a17.576,17.576,0,0,1-3.4-3.173,6.351,6.351,0,0,1-.778-6.862,6.173,6.173,0,0,1,5.773-3.569c.4-.017.8-.009,1.2,0,3.365.064,3.865.557,3.865,3.808Z"/>
      <path id="Path_2045" data-name="Path 2045" d="M889.538-405.065c-.147,2.5.3,5.541-.275,8.545-1.044,5.492-5.224,7.195-9.843,6.195-.657-.142-1.079-.4-.991-1.189.1-.946-.335-2.065.168-2.814.59-.878,1.773-.234,2.689-.326,1.794-.182,2.919-1.292,3.16-3.438a31.858,31.858,0,0,0,.135-3.458c.015-3.827.026-7.655-.011-11.483-.008-.791.135-1.155,1.025-1.086a23.209,23.209,0,0,0,3.109,0c.7-.039.858.211.849.871C889.517-410.693,889.538-408.141,889.538-405.065Z"/>
      <path id="Path_2046" data-name="Path 2046" d="M855.892-378.936a6.929,6.929,0,0,0-2.987-.691,3.625,3.625,0,0,0-3.608,2.272,4.4,4.4,0,0,0,.545,4.738,3.9,3.9,0,0,0,4.168,1.082c1.505-.336.737-1.6.84-2.466.107-.9-.681-.5-1.11-.581-.271-.049-.561.01-.835-.031-.391-.058-.312-.39-.326-.657s.05-.472.375-.472c.119,0,.239,0,.358-.008,2.895-.153,2.895-.153,2.895,2.752,0,2.2,0,2.221-2.224,2.627-2.138.388-4.112.055-5.467-1.8a5.327,5.327,0,0,1-.43-5.669,5.041,5.041,0,0,1,4.936-2.939,6.935,6.935,0,0,1,1.779.159C856-380.308,856.007-380.325,855.892-378.936Z" fill="#ea2129"/>
      <path id="Path_2047" data-name="Path 2047" d="M873.58-371.09c-1.2-2.99-2.41-5.98-3.6-8.97a.7.7,0,0,0-.8-.52c-.4.02-.78-.04-.98.46-1.25,3.19-2.52,6.36-3.78,9.54,1.02.4,1.52.05,1.82-.9.19-.61.16-1.58.89-1.67a12.045,12.045,0,0,1,3.93.03c.75.15.69,1.32,1.05,2.01a2.949,2.949,0,0,0,.2.44c.35.4.82.26,1.22.17C873.85-370.58,873.66-370.89,873.58-371.09Zm-5.4-3.25c-.81.04-.83-.27-.57-.91.49-1.16.91-2.35,1.44-3.76.63,1.62,1.19,3.05,1.81,4.66C869.84-374.35,869.01-374.38,868.18-374.34Z" fill="#ea2129"/>
      <path id="Path_2048" data-name="Path 2048" d="M832.052-375.586c0-1.394.027-2.79-.012-4.184-.017-.625.188-.839.815-.821,1.314.038,2.63.014,3.946.011.384,0,.7.011.7.551-.007.514-.292.583-.692.582-.916,0-1.834.017-2.75,0-.5-.012-.755.166-.706.688a.685.685,0,0,1,0,.12c-.148,2.451-.148,2.45,2.267,2.451.319,0,.639.017.957,0,.492-.03.6.239.608.663.008.459-.258.508-.615.505-.837-.008-1.675.017-2.511-.009-.489-.015-.771.117-.706.66a.68.68,0,0,1,0,.119c-.147,2.684-.147,2.684,2.533,2.684.439,0,.877.008,1.316.006.417,0,.534.223.535.609,0,.356-.14.514-.485.514-1.554,0-3.109-.005-4.664,0-.645,0-.526-.46-.528-.84C832.049-372.716,832.052-374.151,832.052-375.586Z" fill="#ea232b"/>
      <path id="Path_2049" data-name="Path 2049" d="M835.863-390.355a2.7,2.7,0,0,1-2.929-2.744,2.7,2.7,0,0,1,2.915-2.763,2.811,2.811,0,0,1,2.994,2.732A2.891,2.891,0,0,1,835.863-390.355Z"/>
      <path id="Path_2050" data-name="Path 2050" d="M871.815-391.985a2.779,2.779,0,0,1-2.886,2.827,2.786,2.786,0,0,1-2.662-2.933,2.789,2.789,0,0,1,2.9-2.814A2.71,2.71,0,0,1,871.815-391.985Z" fill="#010101"/>
      <path id="Path_2051" data-name="Path 2051" d="M881.92-356.9a9.264,9.264,0,0,0-.87-1.95c-.36-.48-.18-.59.18-.85a1.8,1.8,0,0,0,.54-2.17,1.656,1.656,0,0,0-1.65-1.16c-.92-.04-1.84.03-2.75-.05-.86-.07-1.02.32-.98,1.05.05.79.01,1.59.01,2.39,0,.68-.04,1.36.02,2.03.05.49-.37,1.32.48,1.36.9.03.44-.83.53-1.3a6.126,6.126,0,0,0,.03-.96.492.492,0,0,1,.36-.53,2.143,2.143,0,0,1,2.75,1.21c.17.45.31.91.5,1.35.13.31.44.33.72.25C882.24-356.35,882.02-356.66,881.92-356.9Zm-2.14-3.1a7.526,7.526,0,0,1-.95,0c-1.44.02-1.47-.05-1.4-1.41.03-.55.2-.8.77-.77.51.02,1.03,0,1.54.01.69.01,1.13.3,1.16,1.05C880.93-360.35,880.42-360.1,879.78-360Z" fill="#838487"/>
      <path id="Path_2052" data-name="Path 2052" d="M883.306-375.506c0-1.393.008-2.785,0-4.177-.005-.509-.03-.925.712-.916.783.01.658.5.659.965,0,2.307.053,4.616-.024,6.92-.033.984.313,1.234,1.212,1.153.75-.068,1.511-.008,2.266-.016.43-.005.792.014.791.605,0,.545-.341.535-.716.534-1.393,0-2.786-.023-4.178.009-.6.013-.737-.24-.727-.782C883.323-372.642,883.306-374.074,883.306-375.506Z" fill="#eb262d"/>
      <path id="Path_2053" data-name="Path 2053" d="M817.4-375.568c0-1.355-.008-2.711.005-4.066,0-.433-.2-.969.626-.966.757,0,.707.435.706.932-.005,2.313.047,4.627-.026,6.937-.03.975.3,1.253,1.218,1.172.791-.071,1.594,0,2.391-.018.451-.009.641.157.639.627s-.243.514-.606.512c-1.436-.007-2.872-.024-4.307.009-.556.012-.661-.228-.654-.713C817.418-372.617,817.4-374.092,817.4-375.568Z" fill="#eb252c"/>
      <path id="Path_2054" data-name="Path 2054" d="M870.26-363.19a3.322,3.322,0,0,0-3.24,3.68,3.293,3.293,0,0,0,3.41,3.39,3.307,3.307,0,0,0,3.17-3.61A3.307,3.307,0,0,0,870.26-363.19Zm-.04,6.19c-1.39-.04-2.15-1.03-2.12-2.75.03-1.6.96-2.64,2.32-2.59,1.31.06,2.15,1.16,2.13,2.78C872.52-357.92,871.63-356.95,870.22-357Z" fill="#818285"/>
      <path id="Path_2055" data-name="Path 2055" d="M827.44-363.2a3.268,3.268,0,0,0-3.33,3.45c-.02,2.18,1.27,3.63,3.24,3.63a3.186,3.186,0,0,0,3.26-3.48A3.275,3.275,0,0,0,827.44-363.2Zm-.09,6.21a2.376,2.376,0,0,1-2.27-2.68,2.434,2.434,0,0,1,2.3-2.67c1.35,0,2.25,1.08,2.24,2.7S828.73-356.99,827.35-356.99Z" fill="#818285"/>
      <path id="Path_2056" data-name="Path 2056" d="M818.825-356.1a2.633,2.633,0,0,1-2.588-1.468c-.106-.248-.4-.63-.006-.844.358-.194.661-.016.846.388.5,1.1,1.491,1.062,2.459.931a1.011,1.011,0,0,0,.969-.9c.061-.587-.322-.873-.8-1.03-.716-.232-1.451-.409-2.167-.642a1.594,1.594,0,0,1-1.277-1.657,1.822,1.822,0,0,1,1.439-1.7,2.975,2.975,0,0,1,3.335.91c.178.3.427.7.036.944-.324.2-.658.034-.848-.381a1.374,1.374,0,0,0-1.281-.735c-.7-.041-1.483.034-1.661.825-.2.9.651.917,1.24,1.087.458.132.921.245,1.376.388.951.3,1.669.825,1.574,1.943a2.069,2.069,0,0,1-1.87,1.874A5.388,5.388,0,0,1,818.825-356.1Z" fill="#818285"/>
      <path id="Path_2057" data-name="Path 2057" d="M886.251-356.118a2.489,2.489,0,0,1-2.389-1.5c-.113-.275-.3-.645.129-.812.322-.125.575-.014.742.371.479,1.105,1.461,1.1,2.44.973a1,1,0,0,0,.954-.917.913.913,0,0,0-.784-1.031c-.724-.212-1.455-.407-2.17-.644a1.559,1.559,0,0,1-1.222-1.569,1.746,1.746,0,0,1,1.242-1.716,2.906,2.906,0,0,1,3.52.916c.128.252.439.6.094.844-.32.227-.671.122-.882-.285a1.691,1.691,0,0,0-2.068-.751c-.473.089-.931.3-.927.92,0,.557.414.733.844.86s.851.2,1.275.31c1.535.394,2.23,1.113,2.106,2.168C889.02-356.847,887.95-356.1,886.251-356.118Z" fill="#818285"/>
      <path id="Path_2058" data-name="Path 2058" d="M847.315-359.612a2.7,2.7,0,0,0,.8,2.17,1.986,1.986,0,0,0,3.029-.585c.233-.407.483-.557.83-.38.369.189.176.563.065.848-.494,1.266-2.46,1.845-3.941,1.17-1.546-.7-2.252-2.885-1.549-4.782a3.056,3.056,0,0,1,3.878-1.868,2.491,2.491,0,0,1,1.617,1.314c.123.244.253.567-.082.728-.237.114-.581.151-.725-.18a1.784,1.784,0,0,0-2.56-.981C847.532-361.724,847.312-360.707,847.315-359.612Z" fill="#818285"/>
      <path id="Path_2059" data-name="Path 2059" d="M861.506-359.122a10.08,10.08,0,0,1,.007-1.192c.148-1.222.007-2.145-1.6-1.828-.372.074-.6-.1-.581-.532s.331-.382.6-.383q2.088-.008,4.177,0c.272,0,.594-.037.613.374s-.228.508-.6.559c-1.653.228-1.652.24-1.652,1.88,0,.915.045,1.833-.019,2.743-.031.435.381,1.233-.423,1.239-.885.007-.444-.835-.507-1.309A11.776,11.776,0,0,1,861.506-359.122Z" fill="#828386"/>
      <path id="Path_2060" data-name="Path 2060" d="M833.481-359.7c0-.837-.009-1.674,0-2.511.006-.371-.129-.863.525-.836.578.024.43.476.433.8.015,1.355.05,2.712-.009,4.064-.036.814.185,1.184,1.054,1.086a13.514,13.514,0,0,1,1.672-.007c.279,0,.579-.014.6.4.014.353-.158.512-.5.511-1.076,0-2.152,0-3.228-.011-.489-.006-.553-.348-.549-.744C833.488-357.868,833.482-358.785,833.481-359.7Z" fill="#858688"/>
      <path id="Path_2061" data-name="Path 2061" d="M856.384-359.7c0,.918,0,1.835,0,2.753,0,.374-.118.607-.544.605s-.534-.246-.533-.615q.006-2.812,0-5.626c0-.365.129-.635.541-.633s.532.282.532.643Z" fill="#8f9093"/>
      <path id="Path_2062" data-name="Path 2062" d="M841.6-359.566c0,.916,0,1.832,0,2.748,0,.363-.077.628-.525.6-.385-.02-.434-.27-.433-.573q0-2.868,0-5.735c0-.315.079-.523.461-.534.476-.014.495.282.495.622Q841.593-361,841.6-359.566Z" fill="#808184"/>
    </g>
  </g>
</svg>
